<?xml version="1.0" standalone="no"?>
<!DOCTYPE svg PUBLIC "-//W3C//DTD SVG 20010904//EN"
 "http://www.w3.org/TR/2001/REC-SVG-20010904/DTD/svg10.dtd">
<svg version="1.0" xmlns="http://www.w3.org/2000/svg"
 width="500.000000pt" height="500.000000pt" viewBox="0 0 500.000000 500.000000"
 preserveAspectRatio="xMidYMid meet">
<metadata>
Created by potrace 1.14, written by Peter Selinger 2001-2017
</metadata>
<g transform="translate(0.000000,500.000000) scale(0.100000,-0.100000)"
fill="#000000" stroke="none">
<path d="M2395 4475 c-188 -36 -338 -146 -415 -307 -59 -123 -70 -188 -70
-435 l0 -213 25 0 25 0 0 206 c0 221 11 300 56 403 54 121 161 221 289 267
171 62 417 52 573 -24 86 -41 175 -131 217 -216 59 -121 66 -165 72 -433 l6
-243 -195 0 -196 0 -36 -113 c-86 -268 -227 -395 -466 -421 -82 -10 -291 11
-361 34 -93 32 -159 83 -333 259 l-159 160 6 41 5 40 -44 0 c-24 0 -44 -4 -44
-10 0 -24 -140 -2231 -145 -2285 l-5 -61 73 72 c141 138 358 210 466 154 57
-29 145 -113 191 -183 45 -68 90 -197 90 -256 0 -73 13 -71 -438 -71 l-402 0
0 -55 0 -55 638 0 c743 0 711 -4 800 88 53 54 84 114 559 1082 277 564 511
1031 520 1038 25 18 39 15 79 -20 l36 -32 -7 124 c-4 69 -13 202 -19 295 l-11
170 -276 3 -276 2 -6 253 c-6 278 -12 317 -74 446 -65 137 -201 243 -368 287
-87 22 -282 27 -380 9z m573 -1049 c15 -8 63 -52 107 -98 80 -84 80 -84 182
-117 138 -44 321 -135 335 -166 9 -21 -47 -140 -503 -1066 -283 -574 -525
-1057 -539 -1073 -45 -53 -89 -66 -241 -66 -157 0 -163 3 -174 85 -24 174 -83
294 -207 418 -92 93 -101 112 -78 171 12 34 32 33 113 -4 37 -16 101 -39 143
-51 88 -24 119 -18 130 27 10 37 -18 60 -103 84 -84 23 -223 85 -239 106 -9
11 -8 32 2 86 24 124 27 127 114 83 69 -35 221 -85 259 -85 40 0 66 36 52 73
-8 21 -25 30 -98 52 -98 30 -243 96 -262 119 -10 12 -10 29 0 86 19 110 22
111 115 68 163 -75 266 -97 290 -63 37 50 11 76 -118 119 -111 37 -217 85
-235 108 -6 7 -13 31 -15 53 -3 22 -24 84 -47 137 -52 123 -52 154 -3 237 58
101 66 104 226 102 92 -1 156 3 202 14 212 49 375 210 450 443 30 95 38 110
69 122 29 12 43 12 73 -4z"/>
<path d="M3340 1612 c-267 -553 -496 -1019 -510 -1036 -13 -16 -38 -37 -55
-47 -29 -19 -18 -19 578 -19 l607 0 0 28 c0 45 -129 2075 -133 2078 -1 1 -220
-450 -487 -1004z"/>
</g>
</svg>
